# xmcd
#
# Track frame offsets:
#	150
#	12946
#	25434
#	46237
#	63273
#	75442
#	88808
#	100993
#	116559
#	130852
#	143141
#	157085
#	170116
#	181417
#	202118
#	214802
#
# Disc length: 3062 seconds
#
# Revision: 0
# Processed by: cddbd v1.5.2PL0 Copyright (c) Steve Scherf et al.
# Submitted via: dBpowerAMP V4.0
#
DISCID=e30bf410
DTITLE=Elvis Presley - From Elvis In Memphis (Disk 1)
DYEAR=2008
DGENRE=Rock and Roll
TTITLE0=Wearin' That Loved On Look
TTITLE1=Only The Strong Survive
TTITLE2=I'll Hold You In My Heart (Till I Can Hold You In My Arms)
TTITLE3=Long Black Limousine
TTITLE4=It Keeps Right On A-Hurtin'
TTITLE5=I'm Movin' On
TTITLE6=Power Of My Love
TTITLE7=Gentle On My Mind
TTITLE8=After Loving You
TTITLE9=True Love Travels On A Gravel Road
TTITLE10=Any Day Now 
TTITLE11=In The Ghetto
TTITLE12=I'll Be There
TTITLE13=Hey Jude
TTITLE14=If I'm A Fool (For Loving You)
TTITLE15=Who Am I
EXTD=
EXTT0=
EXTT1=
EXTT2=
EXTT3=
EXTT4=
EXTT5=
EXTT6=
EXTT7=
EXTT8=
EXTT9=
EXTT10=
EXTT11=
EXTT12=
EXTT13=
EXTT14=
EXTT15=
PLAYORDER=
